# xmcd
#
# Track frame offsets: 
#        300
#        25502
#        48724
#        66573
#        86785
#        116990
#        138289
#        168614
#        188744
#
# Disc length: 2700 seconds
#
# Revision: 0
# Processed by: cddbd v1.5.2PL0 Copyright (c) Steve Scherf et al.
# Submitted via: ExactAudioCopy v1.0b1
#
DISCID=850a8809
DTITLE=Albert King - Red House
DYEAR=1991
DGENRE=Modern Electric Blues
TTITLE0=Stop
TTITLE1=Bluesman
TTITLE2=Don't Let Me Be Lonely
TTITLE3=When You Walk Out the Door
TTITLE4=Problems
TTITLE5=Our Love Is Going to Win
TTITLE6=Trouble
TTITLE7=If You Got It
TTITLE8=Red House
EXTD=
EXTT0=
EXTT1=
EXTT2=
EXTT3=
EXTT4=
EXTT5=
EXTT6=
EXTT7=
EXTT8=
PLAYORDER=
